<svg viewBox="0 0 1024 1023" fill="none" xmlns="http://www.w3.org/2000/svg">
<path fill-rule="evenodd" clip-rule="evenodd" d="M511.981 0C564.939 0.0319987 607.913 43.0382 607.913 95.9959C607.913 148.954 564.939 191.96 511.981 191.992C476.463 192.104 441.136 197.848 407.537 209.447C363.043 224.823 322.165 250.181 288.486 283.06C254.52 316.227 228.057 356.897 211.626 401.439C182.491 370.976 141.453 351.985 95.9986 351.985C68.3198 351.985 42.2889 359.025 19.5698 371.408C80.7192 157.129 278.071 0.0639973 511.869 0H511.981Z" fill="#ffffff"/>
<path fill-rule="evenodd" clip-rule="evenodd" d="M832.007 511.713C831.895 476.21 826.151 440.868 814.551 407.285C799.176 362.775 773.817 321.913 740.939 288.234C707.772 254.252 667.102 227.789 622.56 211.357C653.022 182.239 672.014 141.184 672.014 95.7303C672.014 68.0675 664.974 42.0205 652.59 19.3175C866.869 80.4509 1023.93 277.819 1024 511.601V511.713C1023.97 564.67 980.96 607.645 928.003 607.645C875.045 607.645 832.039 564.67 832.007 511.713Z" fill="#ffffff"/>
<path fill-rule="evenodd" clip-rule="evenodd" d="M511.802 832.009C547.32 831.897 582.647 826.153 616.245 814.554C660.739 799.178 701.618 773.819 735.296 740.941C769.263 707.774 795.726 667.104 812.157 622.562C841.276 653.025 882.33 672.016 927.784 672.016C955.463 672.016 981.494 664.976 1004.21 652.593C943.063 866.872 745.696 1023.94 511.913 1024H511.802C458.844 1023.97 415.87 980.963 415.87 928.005C415.87 875.047 458.844 832.041 511.802 832.009Z" fill="#ffffff"/>
<path fill-rule="evenodd" clip-rule="evenodd" d="M0 511.297C0.0319986 458.355 43.0382 415.365 95.9959 415.365C148.954 415.365 191.96 458.355 191.992 511.297C192.104 546.815 197.848 582.158 209.447 615.74C224.822 660.234 250.165 701.113 283.06 734.791C316.227 768.758 356.897 795.221 401.439 811.652C370.976 840.787 351.985 881.825 351.985 927.279C351.985 954.958 359.025 981.005 371.408 1003.71C157.129 942.558 0.0639973 745.207 0 511.409V511.297Z" fill="#ffffff"/>
</svg>
