<?xml version="1.0" encoding="UTF-8" standalone="no"?>
<svg xmlns:dc="http://purl.org/dc/elements/1.1/"
  xmlns:cc="http://creativecommons.org/ns#"
  xmlns:rdf="http://www.w3.org/1999/02/22-rdf-syntax-ns#"
  xmlns:svg="http://www.w3.org/2000/svg"
  xmlns="http://www.w3.org/2000/svg" id="svg16" version="1.1" fill="none" viewBox="0 0 64 64" height="64" width="64">
  <metadata id="metadata22">
    <rdf:RDF>
      <cc:Work rdf:about="">
        <dc:format>image/svg+xml</dc:format>
        <dc:type rdf:resource="http://purl.org/dc/dcmitype/StillImage" />
        <dc:title></dc:title>
      </cc:Work>
    </rdf:RDF>
  </metadata>
  <defs id="defs20" />
  <path style="stroke-width:1.22459" id="path4" fill="#ffffff" d="m 23.726173,62.895646 c 3.413458,0.914686 6.922186,-1.11112 7.836808,-4.52494 0.914625,-3.413697 -1.111041,-6.922672 -4.524499,-7.837359 -3.413579,-0.914687 -6.922187,1.11112 -7.83681,4.52494 -0.914744,3.413697 1.111043,6.922671 4.524501,7.837359 z" />
  <path style="stroke-width:1.22459" id="path6" fill="#ffffff" d="m 5.624743,31.552334 c 3.41358,0.914687 6.922186,-1.11112 7.836809,-4.52494 0.914746,-3.413697 -1.111043,-6.922548 -4.5244998,-7.837236 -3.4135811,-0.91481 -6.9221869,1.11112 -7.8368344,4.524817 -0.91463539,3.41382 1.111079,6.922672 4.5245252,7.837359 z" />
  <path style="stroke-width:1.22459" id="path8" fill="#33cc99" d="M 40.282333,1.0956657 C 57.304314,5.6569776 67.43411,23.155313 62.930304,40.181425 l -0.0251,0.101036 c -0.913888,3.411126 -4.425799,5.438892 -7.836687,4.524818 -3.412968,-0.914566 -5.438634,-4.426111 -4.524624,-7.837359 l 0.01421,-0.06037 C 53.260331,26.692208 47.181742,16.19431 36.970145,13.457842 l 0.03869,0.01046 c 3.399253,0.888112 6.887776,-1.137573 7.798113,-4.5352263 C 45.717291,5.5353726 43.70889,2.0366489 40.321026,1.1060291 Z" clip-rule="evenodd" fill-rule="evenodd" />
  <path style="stroke-width:1.22459" id="path10" fill="#33b2cc" d="M 62.901773,40.280745 C 58.340657,57.303918 40.843547,67.434423 23.818626,62.930179 l -0.100903,-0.02498 c -3.411008,-0.914074 -5.438511,-4.426111 -4.524621,-7.837359 0.914499,-3.413085 4.425922,-5.438891 7.836809,-4.524939 l 0.06038,0.01422 c 10.216614,2.702543 20.713901,-3.37647 23.450055,-13.588905 l -0.01035,0.0387 c -0.88805,3.39949 1.137493,6.888257 4.535031,7.798659 3.397416,0.910401 6.89586,-1.098016 7.826402,-4.486241 z" clip-rule="evenodd" fill-rule="evenodd" />
  <path style="stroke-width:1.22459" id="path12" fill="#87d639" d="M 23.7176,62.905565 C 6.6956189,58.344131 -3.4341282,40.845795 1.0697139,23.819806 l 0.02503,-0.101035 c 0.9139618,-3.411125 4.425789,-5.438892 7.8367977,-4.524816 3.4128464,0.914441 5.4385104,4.426109 4.5246224,7.837235 l -0.0142,0.06049 c -2.702355,10.217211 3.376233,20.715234 13.587952,23.451579 l -0.03869,-0.01024 c -3.399253,-0.888235 -6.887776,1.137573 -7.798113,4.535228 -0.910337,3.397653 1.097939,6.89634 4.485927,7.826947 z" clip-rule="evenodd" fill-rule="evenodd" />
  <path style="stroke-width:1.22459" id="path14" fill="#3b67d3" d="M 1.0943888,23.719261 C 5.6554789,6.6960882 23.152589,-3.4343686 40.177388,1.0697888 l 0.101021,0.025031 c 3.410887,0.9140258 5.438511,4.4260991 4.524501,7.8373471 -0.914378,3.4130861 -4.425802,5.4388921 -7.836811,4.5249401 l -0.06038,-0.01422 C 26.689234,10.740351 16.191947,16.819363 13.455793,27.031799 l 0.01025,-0.0387 c 0.88805,-3.399494 -1.137493,-6.888262 -4.5349078,-7.798664 -3.3974169,-0.9104 -6.8958715,1.098016 -7.826426,4.486241 z" clip-rule="evenodd" fill-rule="evenodd" />
</svg>
