<svg version="1.1" viewBox="0 0 500 500" xmlns="http://www.w3.org/2000/svg">
  <defs>
    <style type="text/css" id="current-color-scheme">.ColorScheme-Text { color: #232629; }</style>
  </defs>
<g fill="currentColor" class="ColorScheme-Text" transform="rotate(26 250 250)">
<path fill-rule="nonzero" d="M 479.863281 295.621094 C 484.144531 273.875 469.730469 252.632812 447.730469 248.304688 C 427.519531 244.328125 407.832031 256.015625 401.46875 274.824219 C 401.203125 276.640625 400.882812 278.449219 400.539062 280.238281 C 386.179688 353.199219 321.820312 403.828125 250.070312 403.582031 C 262.023438 415.324219 268.027344 432.753906 264.523438 450.480469 C 261.644531 465.132812 252.820312 477.089844 241.097656 484.441406 C 354.351562 489.101562 457.515625 410.457031 480.042969 295.863281 C 480.0625 295.816406 480.0625 295.730469 480.0625 295.65625 Z M 479.863281 295.621094 "/>
<path fill-rule="nonzero" d="M 52.789062 253.03125 C 74.792969 257.367188 96.195312 243.164062 100.460938 221.375 L 100.574219 221.410156 C 100.59375 221.347656 100.601562 221.308594 100.609375 221.269531 C 115.042969 147.898438 180.046875 97.109375 252.296875 97.964844 C 240.527344 86.179688 234.617188 68.890625 238.09375 51.265625 C 240.992188 36.519531 249.921875 24.496094 261.742188 17.164062 C 147.8125 11.652344 43.75 90.488281 21.105469 205.648438 C 20.660156 207.929688 20.339844 210.175781 19.941406 212.425781 C 19.488281 231.703125 33.0625 249.148438 52.789062 253.03125 "/>
<path fill-rule="nonzero" d="M 292.066406 20.671875 C 271.835938 18.878906 252.992188 32.824219 248.957031 53.402344 C 244.796875 74.585938 257.792969 95.144531 278.179688 100.484375 C 278.824219 100.59375 279.441406 100.660156 280.054688 100.785156 C 353.074219 115.148438 403.742188 179.609375 403.378906 251.433594 C 415.164062 239.804688 432.359375 234.003906 449.863281 237.445312 C 464.765625 240.355469 476.910156 249.453125 484.183594 261.460938 C 489.464844 147.734375 410.691406 43.882812 295.691406 21.273438 C 294.488281 21.042969 293.277344 20.898438 292.066406 20.671875 "/>
<path fill-rule="nonzero" d="M 253.691406 448.339844 C 257.832031 427.21875 244.882812 406.707031 224.558594 401.328125 C 223.40625 401.101562 222.230469 400.96875 221.09375 400.742188 C 147.773438 386.308594 97.03125 321.378906 97.769531 249.203125 C 85.988281 261.277344 68.488281 267.398438 50.65625 263.882812 C 36.144531 261.042969 24.269531 252.367188 16.90625 240.808594 C 12.03125 354.242188 90.703125 457.65625 205.457031 480.234375 C 207.132812 480.539062 208.78125 480.804688 210.449219 481.085938 C 230.714844 482.925781 249.621094 468.945312 253.691406 448.339844 "/>
</g>
</svg>
